<svg xmlns="http://www.w3.org/2000/svg" viewBox="0 0 1600 1100" width="1600" height="1100"><g fill="none" stroke="#c8a96e" stroke-linecap="round" opacity="0.5"><path d="M66.0,198.3 Q17.8,157.6 -8.4,112.3" stroke-width="0.8"/><path d="M66.0,198.3 Q114.7,202.3 135.2,232.6" stroke-width="0.8"/><path d="M66.0,198.3 Q36.1,216.9 15.6,189.5" stroke-width="0.8"/><path d="M66.0,198.3 Q55.2,177.2 76.4,136.9" stroke-width="0.8"/><path d="M66.0,198.3 Q57.2,244.6 23.1,299.3" stroke-width="0.8"/><path d="M66.0,198.3 C109.1,282.1 102.7,331.5 202.9,379.5 S194.9,432.4 194.9,432.4" stroke-width="1.15"/><path d="M437.4,128.2 Q454.4,173.7 508.9,204.2" stroke-width="0.8"/><path d="M437.4,128.2 Q413.8,132.8 356.5,181.7" stroke-width="0.8"/><path d="M437.4,128.2 Q422.2,100.3 396.2,133.8" stroke-width="0.8"/><path d="M437.4,128.2 Q450.9,77.0 483.9,39.3" stroke-width="0.8"/><path d="M437.4,128.2 C482.9,142.2 482.5,214.9 583.3,310.9 S614.8,379.0 614.8,379.0" stroke-width="1.15"/><path d="M747.0,105.8 Q734.9,143.7 674.5,162.8" stroke-width="0.8"/><path d="M747.0,105.8 Q697.0,48.6 679.1,11.4" stroke-width="0.8"/><path d="M747.0,105.8 Q768.5,85.3 758.5,17.0" stroke-width="0.8"/><path d="M747.0,105.8 Q724.2,87.4 661.0,34.6" stroke-width="0.8"/><path d="M747.0,105.8 C769.9,109.4 808.8,73.6 935.5,114.8 S955.7,180.8 955.7,180.8" stroke-width="1.15"/><path d="M953.3,173.5 Q986.2,157.2 1051.1,149.7" stroke-width="0.8"/><path d="M953.3,173.5 Q908.9,156.7 866.0,168.5" stroke-width="0.8"/><path d="M953.3,173.5 Q934.8,137.3 907.4,99.0" stroke-width="0.8"/><path d="M953.3,173.5 Q914.8,193.7 894.4,192.3" stroke-width="0.8"/><path d="M953.3,173.5 C961.6,181.5 888.0,199.5 745.4,87.1 S753.2,108.4 753.2,108.4" stroke-width="1.15"/><path d="M1267.9,68.3 Q1205.4,108.1 1198.3,143.7" stroke-width="0.8"/><path d="M1267.9,68.3 Q1290.2,12.8 1262.3,-56.4" stroke-width="0.8"/><path d="M1267.9,68.3 Q1270.3,39.5 1214.1,22.9" stroke-width="0.8"/><path d="M1267.9,68.3 Q1288.2,17.3 1302.2,8.0" stroke-width="0.8"/><path d="M1267.9,68.3 Q1263.8,124.2 1303.5,170.3" stroke-width="0.8"/><path d="M1267.9,68.3 C1305.9,120.7 1279.8,55.4 1428.2,125.1 S1418.4,116.7 1418.4,116.7" stroke-width="1.15"/><path d="M1420.0,125.9 Q1427.0,165.6 1506.4,192.9" stroke-width="0.8"/><path d="M1420.0,125.9 Q1480.0,127.6 1475.2,171.5" stroke-width="0.8"/><path d="M1420.0,125.9 Q1430.0,169.4 1382.7,212.8" stroke-width="0.8"/><path d="M1420.0,125.9 C1406.8,143.2 1352.4,162.0 1347.0,76.4 S1274.9,74.0 1274.9,74.0" stroke-width="1.15"/><path d="M194.6,433.1 Q169.4,381.8 80.5,392.3" stroke-width="0.8"/><path d="M194.6,433.1 Q200.8,403.9 269.2,335.6" stroke-width="0.8"/><path d="M194.6,433.1 Q172.7,394.1 111.2,363.3" stroke-width="0.8"/><path d="M194.6,433.1 Q218.3,458.0 230.9,503.3" stroke-width="0.8"/><path d="M194.6,433.1 C306.6,447.1 362.5,494.8 350.3,460.9 S431.0,456.6 431.0,456.6" stroke-width="1.15"/><path d="M426.0,466.1 Q436.6,513.3 435.4,553.4" stroke-width="0.8"/><path d="M426.0,466.1 Q466.6,461.0 503.0,407.1" stroke-width="0.8"/><path d="M426.0,466.1 Q436.5,384.8 441.4,325.2" stroke-width="0.8"/><path d="M426.0,466.1 Q391.2,442.6 312.1,401.5" stroke-width="0.8"/><path d="M426.0,466.1 C516.7,436.5 500.9,410.9 616.5,371.1 S616.9,383.5 616.9,383.5" stroke-width="1.15"/><path d="M620.0,373.6 Q649.3,399.5 706.1,461.6" stroke-width="0.8"/><path d="M620.0,373.6 Q631.0,429.6 614.8,484.1" stroke-width="0.8"/><path d="M620.0,373.6 Q587.8,384.1 563.5,469.7" stroke-width="0.8"/><path d="M620.0,373.6 Q543.5,366.7 531.1,326.7" stroke-width="0.8"/><path d="M620.0,373.6 Q650.6,351.8 663.6,278.6" stroke-width="0.8"/><path d="M620.0,373.6 Q635.7,364.7 683.1,340.7" stroke-width="0.8"/><path d="M620.0,373.6 C605.5,351.2 518.5,439.0 502.6,405.9 S432.7,459.0 432.7,459.0" stroke-width="1.15"/><path d="M1004.3,386.1 Q1065.3,348.1 1074.3,307.0" stroke-width="0.8"/><path d="M1004.3,386.1 Q1009.0,412.0 981.1,445.2" stroke-width="0.8"/><path d="M1004.3,386.1 Q962.0,437.8 931.5,456.4" stroke-width="0.8"/><path d="M1004.3,386.1 Q959.6,332.4 937.8,341.9" stroke-width="0.8"/><path d="M1004.3,386.1 Q977.6,339.0 930.8,279.9" stroke-width="0.8"/><path d="M1004.3,386.1 C1017.5,416.6 1081.9,384.4 1095.5,384.0 S1119.1,411.9 1119.1,411.9" stroke-width="1.15"/><path d="M1116.9,410.3 Q1143.6,465.9 1153.8,483.1" stroke-width="0.8"/><path d="M1116.9,410.3 Q1164.1,405.6 1196.8,431.6" stroke-width="0.8"/><path d="M1116.9,410.3 Q1129.7,386.1 1116.9,382.9" stroke-width="0.8"/><path d="M1116.9,410.3 Q1073.2,442.0 1068.8,502.6" stroke-width="0.8"/><path d="M1116.9,410.3 Q1119.6,437.0 1187.1,445.0" stroke-width="0.8"/><path d="M1116.9,410.3 C1031.4,409.7 993.6,462.0 1055.7,389.6 S1009.4,390.8 1009.4,390.8" stroke-width="1.15"/><path d="M1454.5,355.8 Q1380.9,394.5 1318.6,423.8" stroke-width="0.8"/><path d="M1454.5,355.8 Q1453.4,288.0 1427.2,253.1" stroke-width="0.8"/><path d="M1454.5,355.8 Q1467.1,339.5 1480.6,285.6" stroke-width="0.8"/><path d="M1454.5,355.8 Q1446.5,276.6 1488.5,246.5" stroke-width="0.8"/><path d="M1454.5,355.8 C1479.8,270.8 1429.8,223.2 1433.1,214.1 S1421.2,133.9 1421.2,133.9" stroke-width="1.15"/><path d="M124.4,730.1 Q86.2,759.8 81.3,772.6" stroke-width="0.8"/><path d="M124.4,730.1 Q148.2,735.6 209.7,753.6" stroke-width="0.8"/><path d="M124.4,730.1 Q96.7,703.8 26.3,685.8" stroke-width="0.8"/><path d="M124.4,730.1 Q45.3,695.5 -3.2,727.4" stroke-width="0.8"/><path d="M124.4,730.1 Q185.2,682.3 211.3,644.1" stroke-width="0.8"/><path d="M124.4,730.1 C138.6,743.1 113.6,799.3 43.9,874.3 S70.2,948.9 70.2,948.9" stroke-width="1.15"/><path d="M389.8,692.6 Q381.4,742.4 297.0,780.3" stroke-width="0.8"/><path d="M389.8,692.6 Q452.3,721.2 476.9,696.5" stroke-width="0.8"/><path d="M389.8,692.6 Q436.8,689.4 468.7,695.9" stroke-width="0.8"/><path d="M389.8,692.6 C407.4,739.1 435.0,777.4 532.3,747.4 S587.7,739.8 587.7,739.8" stroke-width="1.15"/><path d="M580.0,733.5 Q653.2,737.3 729.1,792.1" stroke-width="0.8"/><path d="M580.0,733.5 Q587.0,691.5 577.7,662.7" stroke-width="0.8"/><path d="M580.0,733.5 Q579.0,665.2 602.2,613.1" stroke-width="0.8"/><path d="M580.0,733.5 Q627.7,725.0 659.0,672.9" stroke-width="0.8"/><path d="M580.0,733.5 C495.2,770.3 551.7,738.6 442.4,652.0 S393.8,683.8 393.8,683.8" stroke-width="1.15"/><path d="M919.4,699.0 Q883.7,636.3 873.8,589.2" stroke-width="0.8"/><path d="M919.4,699.0 Q863.5,657.7 820.6,630.9" stroke-width="0.8"/><path d="M919.4,699.0 Q944.4,700.0 956.1,759.0" stroke-width="0.8"/><path d="M919.4,699.0 C1020.9,739.5 1000.2,748.4 1184.5,682.0 S1190.3,710.2 1190.3,710.2" stroke-width="1.15"/><path d="M1185.7,716.5 Q1190.8,681.8 1214.0,612.6" stroke-width="0.8"/><path d="M1185.7,716.5 Q1155.9,684.3 1150.9,638.0" stroke-width="0.8"/><path d="M1185.7,716.5 Q1238.7,682.1 1282.1,671.9" stroke-width="0.8"/><path d="M1185.7,716.5 Q1166.8,709.5 1212.9,679.4" stroke-width="0.8"/><path d="M1185.7,716.5 Q1216.5,668.6 1267.0,655.6" stroke-width="0.8"/><path d="M1185.7,716.5 C1064.0,723.7 1076.4,672.6 925.2,678.0 S923.7,703.5 923.7,703.5" stroke-width="1.15"/><path d="M1552.5,645.0 Q1583.9,594.2 1583.6,567.8" stroke-width="0.8"/><path d="M1552.5,645.0 Q1621.2,676.2 1682.5,671.5" stroke-width="0.8"/><path d="M1552.5,645.0 Q1561.9,606.4 1549.5,563.9" stroke-width="0.8"/><path d="M1552.5,645.0 Q1596.0,643.6 1685.2,605.7" stroke-width="0.8"/><path d="M1552.5,645.0 Q1486.3,649.5 1431.9,724.9" stroke-width="0.8"/><path d="M1552.5,645.0 C1557.0,628.0 1449.1,480.4 1466.0,377.7 S1444.8,346.3 1444.8,346.3" stroke-width="1.15"/><path d="M65.5,951.9 Q51.7,1014.1 82.9,1046.0" stroke-width="0.8"/><path d="M65.5,951.9 Q61.3,906.4 0.6,915.9" stroke-width="0.8"/><path d="M65.5,951.9 Q32.4,990.6 57.6,1046.3" stroke-width="0.8"/><path d="M65.5,951.9 Q26.8,915.3 32.6,875.4" stroke-width="0.8"/><path d="M65.5,951.9 Q61.1,918.5 85.4,876.6" stroke-width="0.8"/><path d="M65.5,951.9 Q105.4,931.2 81.2,878.8" stroke-width="0.8"/><path d="M65.5,951.9 C80.6,950.5 161.7,836.6 69.5,788.2 S121.4,736.9 121.4,736.9" stroke-width="1.15"/><path d="M455.5,983.2 Q414.7,1046.7 381.2,1046.0" stroke-width="0.8"/><path d="M455.5,983.2 Q456.9,967.8 469.2,975.2" stroke-width="0.8"/><path d="M455.5,983.2 Q438.3,918.5 425.4,908.8" stroke-width="0.8"/><path d="M455.5,983.2 Q419.7,926.6 371.1,938.1" stroke-width="0.8"/><path d="M455.5,983.2 Q455.1,1018.8 435.6,1075.7" stroke-width="0.8"/><path d="M455.5,983.2 C467.8,1007.7 567.6,964.0 703.6,977.9 S692.2,913.1 692.2,913.1" stroke-width="1.15"/><path d="M699.5,916.3 Q650.8,963.8 620.9,1002.3" stroke-width="0.8"/><path d="M699.5,916.3 Q771.1,914.9 820.4,886.0" stroke-width="0.8"/><path d="M699.5,916.3 Q662.0,845.6 655.0,803.3" stroke-width="0.8"/><path d="M699.5,916.3 Q733.2,942.9 761.3,958.2" stroke-width="0.8"/><path d="M699.5,916.3 Q742.6,909.7 794.5,915.6" stroke-width="0.8"/><path d="M699.5,916.3 Q696.0,862.6 667.9,854.6" stroke-width="0.8"/><path d="M699.5,916.3 C684.8,884.1 632.6,757.7 641.5,736.5 S583.0,741.2 583.0,741.2" stroke-width="1.15"/><path d="M1009.8,994.9 Q996.7,1016.5 951.4,1063.7" stroke-width="0.8"/><path d="M1009.8,994.9 Q997.2,959.4 956.9,963.5" stroke-width="0.8"/><path d="M1009.8,994.9 Q954.9,1010.4 921.8,997.1" stroke-width="0.8"/><path d="M1009.8,994.9 Q1016.6,963.3 1014.7,962.0" stroke-width="0.8"/><path d="M1009.8,994.9 C1020.8,983.6 1202.7,1012.2 1200.8,1066.5 S1254.4,1036.1 1254.4,1036.1" stroke-width="1.15"/><path d="M1263.3,1028.7 Q1285.0,1049.2 1311.1,1081.3" stroke-width="0.8"/><path d="M1263.3,1028.7 Q1257.5,976.9 1253.2,894.1" stroke-width="0.8"/><path d="M1263.3,1028.7 Q1299.6,1037.2 1332.2,1041.6" stroke-width="0.8"/><path d="M1263.3,1028.7 Q1249.4,1040.5 1179.5,1047.0" stroke-width="0.8"/><path d="M1263.3,1028.7 C1295.7,1062.5 1308.1,938.7 1394.3,1003.7 S1459.4,966.7 1459.4,966.7" stroke-width="1.15"/><path d="M1469.2,959.5 Q1499.3,948.7 1534.2,880.2" stroke-width="0.8"/><path d="M1469.2,959.5 Q1442.3,1016.5 1415.2,1045.8" stroke-width="0.8"/><path d="M1469.2,959.5 Q1515.1,974.4 1550.2,1014.7" stroke-width="0.8"/><path d="M1469.2,959.5 C1472.4,968.8 1325.0,961.7 1359.4,1022.4 S1270.2,1025.2 1270.2,1025.2" stroke-width="1.15"/></g><g fill="#d8bd86" opacity="0.5"><circle cx="66.0" cy="198.3" r="3.1"/><circle cx="-8.4" cy="112.3" r="1.1"/><circle cx="135.2" cy="232.6" r="1.6"/><circle cx="15.6" cy="189.5" r="1.3"/><circle cx="23.1" cy="299.3" r="1.3"/><circle cx="437.4" cy="128.2" r="3.8"/><circle cx="356.5" cy="181.7" r="1.0"/><circle cx="396.2" cy="133.8" r="1.0"/><circle cx="483.9" cy="39.3" r="1.4"/><circle cx="747.0" cy="105.8" r="3.1"/><circle cx="679.1" cy="11.4" r="1.4"/><circle cx="953.3" cy="173.5" r="2.3"/><circle cx="1051.1" cy="149.7" r="1.0"/><circle cx="894.4" cy="192.3" r="0.8"/><circle cx="1267.9" cy="68.3" r="3.3"/><circle cx="1214.1" cy="22.9" r="1.1"/><circle cx="1420.0" cy="125.9" r="3.1"/><circle cx="1506.4" cy="192.9" r="1.3"/><circle cx="1382.7" cy="212.8" r="1.5"/><circle cx="194.6" cy="433.1" r="3.3"/><circle cx="111.2" cy="363.3" r="1.1"/><circle cx="426.0" cy="466.1" r="2.9"/><circle cx="312.1" cy="401.5" r="1.4"/><circle cx="620.0" cy="373.6" r="3.6"/><circle cx="706.1" cy="461.6" r="0.9"/><circle cx="663.6" cy="278.6" r="1.0"/><circle cx="1004.3" cy="386.1" r="2.4"/><circle cx="937.8" cy="341.9" r="1.1"/><circle cx="930.8" cy="279.9" r="1.1"/><circle cx="1116.9" cy="410.3" r="2.7"/><circle cx="1196.8" cy="431.6" r="0.8"/><circle cx="1454.5" cy="355.8" r="2.3"/><circle cx="1427.2" cy="253.1" r="1.2"/><circle cx="1480.6" cy="285.6" r="1.6"/><circle cx="124.4" cy="730.1" r="2.4"/><circle cx="81.3" cy="772.6" r="1.4"/><circle cx="209.7" cy="753.6" r="1.4"/><circle cx="26.3" cy="685.8" r="1.2"/><circle cx="-3.2" cy="727.4" r="1.1"/><circle cx="389.8" cy="692.6" r="3.4"/><circle cx="468.7" cy="695.9" r="1.2"/><circle cx="580.0" cy="733.5" r="3.5"/><circle cx="577.7" cy="662.7" r="0.9"/><circle cx="659.0" cy="672.9" r="0.9"/><circle cx="919.4" cy="699.0" r="2.9"/><circle cx="820.6" cy="630.9" r="1.1"/><circle cx="1185.7" cy="716.5" r="2.5"/><circle cx="1214.0" cy="612.6" r="1.5"/><circle cx="1150.9" cy="638.0" r="1.1"/><circle cx="1212.9" cy="679.4" r="1.1"/><circle cx="1552.5" cy="645.0" r="3.8"/><circle cx="1583.6" cy="567.8" r="1.5"/><circle cx="65.5" cy="951.9" r="2.5"/><circle cx="0.6" cy="915.9" r="1.6"/><circle cx="32.6" cy="875.4" r="1.0"/><circle cx="85.4" cy="876.6" r="1.2"/><circle cx="455.5" cy="983.2" r="3.5"/><circle cx="381.2" cy="1046.0" r="1.1"/><circle cx="371.1" cy="938.1" r="1.0"/><circle cx="435.6" cy="1075.7" r="1.0"/><circle cx="699.5" cy="916.3" r="3.7"/><circle cx="655.0" cy="803.3" r="0.9"/><circle cx="1009.8" cy="994.9" r="3.4"/><circle cx="951.4" cy="1063.7" r="1.5"/><circle cx="1263.3" cy="1028.7" r="3.4"/><circle cx="1311.1" cy="1081.3" r="1.2"/><circle cx="1469.2" cy="959.5" r="3.0"/><circle cx="1534.2" cy="880.2" r="1.0"/><circle cx="1550.2" cy="1014.7" r="1.0"/></g></svg>