<svg xmlns="http://www.w3.org/2000/svg" viewBox="0 0 1600 1100" width="1600" height="1100"><g fill="none" stroke="#b08a4a" stroke-linecap="round" opacity="0.22"><path d="M169.0,128.6 Q162.6,97.3 177.6,15.4" stroke-width="0.8"/><path d="M169.0,128.6 Q218.2,177.7 205.2,263.8" stroke-width="0.8"/><path d="M169.0,128.6 Q163.6,200.0 127.3,241.0" stroke-width="0.8"/><path d="M169.0,128.6 Q217.9,200.2 256.9,232.3" stroke-width="0.8"/><path d="M169.0,128.6 Q210.1,192.7 266.4,221.9" stroke-width="0.8"/><path d="M169.0,128.6 Q192.1,128.3 256.0,155.0" stroke-width="0.8"/><path d="M169.0,128.6 C271.6,88.1 251.1,137.7 365.5,174.6 S379.4,145.4 379.4,145.4" stroke-width="1.15"/><path d="M386.6,150.6 Q368.8,182.9 321.9,204.4" stroke-width="0.8"/><path d="M386.6,150.6 Q381.7,156.7 395.2,184.0" stroke-width="0.8"/><path d="M386.6,150.6 Q332.0,164.7 289.5,147.0" stroke-width="0.8"/><path d="M386.6,150.6 C376.3,148.4 290.8,261.7 367.1,370.1 S322.5,361.3 322.5,361.3" stroke-width="1.15"/><path d="M656.2,84.1 Q685.9,88.7 758.8,111.7" stroke-width="0.8"/><path d="M656.2,84.1 Q694.6,108.2 698.3,92.5" stroke-width="0.8"/><path d="M656.2,84.1 Q633.9,49.9 578.8,-19.5" stroke-width="0.8"/><path d="M656.2,84.1 Q729.5,27.1 728.4,21.8" stroke-width="0.8"/><path d="M656.2,84.1 Q668.3,140.0 626.7,150.1" stroke-width="0.8"/><path d="M656.2,84.1 C590.0,132.3 470.8,97.2 465.9,191.6 S395.8,157.2 395.8,157.2" stroke-width="1.15"/><path d="M1006.3,141.2 Q1037.7,137.6 1058.6,60.8" stroke-width="0.8"/><path d="M1006.3,141.2 Q1043.4,144.7 1029.3,197.8" stroke-width="0.8"/><path d="M1006.3,141.2 Q1032.1,167.9 976.6,186.8" stroke-width="0.8"/><path d="M1006.3,141.2 Q1011.2,169.3 1006.6,185.4" stroke-width="0.8"/><path d="M1006.3,141.2 Q1020.2,107.2 1077.7,99.8" stroke-width="0.8"/><path d="M1006.3,141.2 C1126.3,91.1 1094.6,103.0 1198.3,148.8 S1250.8,114.5 1250.8,114.5" stroke-width="1.15"/><path d="M1246.4,115.4 Q1259.8,99.7 1334.2,129.9" stroke-width="0.8"/><path d="M1246.4,115.4 Q1293.4,176.2 1296.1,160.1" stroke-width="0.8"/><path d="M1246.4,115.4 Q1294.1,77.2 1307.9,61.8" stroke-width="0.8"/><path d="M1246.4,115.4 Q1259.5,94.9 1266.0,32.5" stroke-width="0.8"/><path d="M1246.4,115.4 Q1227.9,98.0 1207.3,149.4" stroke-width="0.8"/><path d="M1246.4,115.4 Q1279.5,131.6 1245.7,171.0" stroke-width="0.8"/><path d="M1246.4,115.4 C1305.6,171.3 1311.0,99.3 1412.0,101.1 S1393.7,119.3 1393.7,119.3" stroke-width="1.15"/><path d="M1401.9,110.1 Q1404.7,164.6 1329.6,262.6" stroke-width="0.8"/><path d="M1401.9,110.1 Q1385.4,82.6 1385.6,37.3" stroke-width="0.8"/><path d="M1401.9,110.1 Q1424.7,160.9 1431.0,188.9" stroke-width="0.8"/><path d="M1401.9,110.1 C1306.8,72.4 1278.3,139.2 1328.7,151.9 S1239.8,112.2 1239.8,112.2" stroke-width="1.15"/><path d="M213.6,438.2 Q271.9,472.4 302.5,464.0" stroke-width="0.8"/><path d="M213.6,438.2 Q178.4,510.4 135.2,551.8" stroke-width="0.8"/><path d="M213.6,438.2 Q249.7,447.8 226.3,465.7" stroke-width="0.8"/><path d="M213.6,438.2 Q225.5,462.7 247.2,496.3" stroke-width="0.8"/><path d="M213.6,438.2 C267.9,406.4 237.8,407.5 267.4,402.7 S326.7,354.4 326.7,354.4" stroke-width="1.15"/><path d="M326.1,358.3 Q300.1,324.8 295.5,325.0" stroke-width="0.8"/><path d="M326.1,358.3 Q346.4,431.8 341.3,481.6" stroke-width="0.8"/><path d="M326.1,358.3 Q287.9,383.2 182.2,426.3" stroke-width="0.8"/><path d="M326.1,358.3 Q262.2,375.7 262.8,355.7" stroke-width="0.8"/><path d="M326.1,358.3 C294.8,369.0 281.8,404.6 258.0,445.4 S203.8,446.2 203.8,446.2" stroke-width="1.15"/><path d="M658.5,387.6 Q631.3,362.5 635.3,336.1" stroke-width="0.8"/><path d="M658.5,387.6 Q654.3,403.9 658.9,474.0" stroke-width="0.8"/><path d="M658.5,387.6 Q668.7,335.8 721.5,277.3" stroke-width="0.8"/><path d="M658.5,387.6 Q656.1,347.5 659.1,311.0" stroke-width="0.8"/><path d="M658.5,387.6 C687.9,357.4 812.1,403.2 832.8,425.0 S845.0,474.7 845.0,474.7" stroke-width="1.15"/><path d="M851.9,480.0 Q865.0,510.6 913.8,486.1" stroke-width="0.8"/><path d="M851.9,480.0 Q878.2,477.3 935.3,453.7" stroke-width="0.8"/><path d="M851.9,480.0 Q893.1,512.0 906.0,585.4" stroke-width="0.8"/><path d="M851.9,480.0 Q849.1,430.1 866.8,415.6" stroke-width="0.8"/><path d="M851.9,480.0 Q804.7,440.0 826.3,351.9" stroke-width="0.8"/><path d="M851.9,480.0 C824.5,434.1 722.8,430.9 725.0,428.7 S659.8,380.5 659.8,380.5" stroke-width="1.15"/><path d="M1280.1,381.6 Q1289.4,353.7 1319.2,348.9" stroke-width="0.8"/><path d="M1280.1,381.6 Q1258.4,435.1 1266.9,468.5" stroke-width="0.8"/><path d="M1280.1,381.6 Q1284.3,306.0 1262.2,258.9" stroke-width="0.8"/><path d="M1280.1,381.6 C1390.3,376.6 1362.8,455.1 1474.5,382.6 S1533.0,427.2 1533.0,427.2" stroke-width="1.15"/><path d="M1528.5,419.0 Q1493.0,409.0 1449.5,359.4" stroke-width="0.8"/><path d="M1528.5,419.0 Q1494.4,427.3 1445.4,372.2" stroke-width="0.8"/><path d="M1528.5,419.0 Q1563.0,442.6 1625.1,460.4" stroke-width="0.8"/><path d="M1528.5,419.0 Q1565.5,416.6 1611.3,458.4" stroke-width="0.8"/><path d="M1528.5,419.0 Q1577.3,429.3 1603.9,432.2" stroke-width="0.8"/><path d="M1528.5,419.0 C1500.4,350.0 1373.2,353.2 1347.4,335.0 S1278.6,376.8 1278.6,376.8" stroke-width="1.15"/><path d="M68.6,729.8 Q66.3,759.3 49.9,811.5" stroke-width="0.8"/><path d="M68.6,729.8 Q88.2,784.4 56.2,792.9" stroke-width="0.8"/><path d="M68.6,729.8 Q74.1,784.7 38.0,830.0" stroke-width="0.8"/><path d="M68.6,729.8 Q54.9,737.2 49.4,722.6" stroke-width="0.8"/><path d="M68.6,729.8 C65.0,811.2 188.1,878.0 149.7,973.2 S211.3,1009.4 211.3,1009.4" stroke-width="1.15"/><path d="M428.6,739.8 Q465.9,737.8 468.3,761.6" stroke-width="0.8"/><path d="M428.6,739.8 Q413.3,734.9 332.9,731.3" stroke-width="0.8"/><path d="M428.6,739.8 Q472.3,712.4 472.1,676.9" stroke-width="0.8"/><path d="M428.6,739.8 Q449.0,765.7 506.9,806.2" stroke-width="0.8"/><path d="M428.6,739.8 C416.9,738.9 351.8,881.1 418.0,861.0 S406.6,947.9 406.6,947.9" stroke-width="1.15"/><path d="M650.8,691.7 Q662.1,740.7 689.3,755.5" stroke-width="0.8"/><path d="M650.8,691.7 Q650.5,689.6 689.9,684.6" stroke-width="0.8"/><path d="M650.8,691.7 Q631.5,743.3 619.7,735.4" stroke-width="0.8"/><path d="M650.8,691.7 Q625.7,675.6 624.6,637.2" stroke-width="0.8"/><path d="M650.8,691.7 Q630.1,751.4 586.2,812.0" stroke-width="0.8"/><path d="M650.8,691.7 C559.5,747.7 534.1,781.9 488.9,738.0 S429.9,736.1 429.9,736.1" stroke-width="1.15"/><path d="M914.9,737.2 Q952.7,745.9 995.4,717.1" stroke-width="0.8"/><path d="M914.9,737.2 Q946.6,699.7 951.7,706.9" stroke-width="0.8"/><path d="M914.9,737.2 Q942.7,789.1 991.9,825.6" stroke-width="0.8"/><path d="M914.9,737.2 Q935.3,776.4 912.9,826.8" stroke-width="0.8"/><path d="M914.9,737.2 Q898.4,775.6 893.3,810.5" stroke-width="0.8"/><path d="M914.9,737.2 C881.3,828.4 944.2,890.2 924.3,946.2 S945.9,978.4 945.9,978.4" stroke-width="1.15"/><path d="M1226.9,719.8 Q1286.2,785.6 1281.9,798.8" stroke-width="0.8"/><path d="M1226.9,719.8 Q1252.3,744.3 1236.7,778.0" stroke-width="0.8"/><path d="M1226.9,719.8 Q1237.2,662.2 1264.7,666.7" stroke-width="0.8"/><path d="M1226.9,719.8 Q1220.4,682.4 1198.2,628.0" stroke-width="0.8"/><path d="M1226.9,719.8 Q1211.4,651.0 1189.6,618.3" stroke-width="0.8"/><path d="M1226.9,719.8 Q1268.3,655.9 1297.1,660.6" stroke-width="0.8"/><path d="M1226.9,719.8 C1256.6,791.1 1178.6,859.9 1215.8,878.7 S1167.3,972.9 1167.3,972.9" stroke-width="1.15"/><path d="M1518.8,686.3 Q1515.7,637.4 1503.2,636.8" stroke-width="0.8"/><path d="M1518.8,686.3 Q1500.1,670.8 1475.6,646.3" stroke-width="0.8"/><path d="M1518.8,686.3 Q1469.0,677.7 1442.3,676.4" stroke-width="0.8"/><path d="M1518.8,686.3 Q1470.2,681.2 1376.1,675.1" stroke-width="0.8"/><path d="M1518.8,686.3 C1562.3,623.0 1528.3,571.7 1565.0,487.2 S1525.4,414.0 1525.4,414.0" stroke-width="1.15"/><path d="M206.9,1011.0 Q207.7,1075.7 190.6,1106.8" stroke-width="0.8"/><path d="M206.9,1011.0 Q192.3,1010.4 225.0,930.8" stroke-width="0.8"/><path d="M206.9,1011.0 Q257.1,1002.2 278.2,1047.3" stroke-width="0.8"/><path d="M206.9,1011.0 Q264.2,980.0 315.7,968.1" stroke-width="0.8"/><path d="M206.9,1011.0 Q250.6,1016.4 312.1,1022.2" stroke-width="0.8"/><path d="M206.9,1011.0 C298.0,1005.4 331.9,949.6 312.7,961.3 S391.1,964.6 391.1,964.6" stroke-width="1.15"/><path d="M397.7,956.0 Q447.9,964.3 501.6,996.4" stroke-width="0.8"/><path d="M397.7,956.0 Q399.4,932.4 435.0,882.2" stroke-width="0.8"/><path d="M397.7,956.0 Q418.5,1023.8 441.9,1088.4" stroke-width="0.8"/><path d="M397.7,956.0 Q340.2,983.9 342.5,1024.2" stroke-width="0.8"/><path d="M397.7,956.0 C306.2,956.6 316.4,1027.6 256.0,1049.3 S199.5,1002.4 199.5,1002.4" stroke-width="1.15"/><path d="M690.2,938.7 Q688.3,962.3 679.5,1016.6" stroke-width="0.8"/><path d="M690.2,938.7 Q719.1,967.2 683.9,983.0" stroke-width="0.8"/><path d="M690.2,938.7 Q670.7,925.4 707.4,853.7" stroke-width="0.8"/><path d="M690.2,938.7 Q702.4,911.1 667.6,858.4" stroke-width="0.8"/><path d="M690.2,938.7 C633.6,910.3 662.5,772.9 632.8,722.3 S651.1,688.0 651.1,688.0" stroke-width="1.15"/><path d="M941.3,971.1 Q948.5,938.4 978.5,933.3" stroke-width="0.8"/><path d="M941.3,971.1 Q988.1,932.2 1016.3,863.4" stroke-width="0.8"/><path d="M941.3,971.1 Q937.5,933.0 875.3,894.3" stroke-width="0.8"/><path d="M941.3,971.1 Q991.1,991.6 1019.9,991.1" stroke-width="0.8"/><path d="M941.3,971.1 Q940.5,966.0 967.0,905.9" stroke-width="0.8"/><path d="M941.3,971.1 C965.2,917.7 1119.6,1033.1 1117.1,998.6 S1160.8,975.1 1160.8,975.1" stroke-width="1.15"/><path d="M1169.9,978.1 Q1123.9,983.0 1022.0,1043.1" stroke-width="0.8"/><path d="M1169.9,978.1 Q1239.5,982.5 1283.6,955.6" stroke-width="0.8"/><path d="M1169.9,978.1 Q1106.8,948.7 1050.6,924.4" stroke-width="0.8"/><path d="M1169.9,978.1 Q1101.8,983.4 1052.9,997.2" stroke-width="0.8"/><path d="M1169.9,978.1 Q1171.8,938.7 1198.6,865.6" stroke-width="0.8"/><path d="M1169.9,978.1 C1092.0,937.5 1062.2,931.1 976.8,934.9 S942.5,974.7 942.5,974.7" stroke-width="1.15"/><path d="M1541.4,960.9 Q1533.2,1001.2 1519.3,1029.9" stroke-width="0.8"/><path d="M1541.4,960.9 Q1472.6,961.1 1436.1,938.5" stroke-width="0.8"/><path d="M1541.4,960.9 Q1519.0,900.1 1481.7,875.9" stroke-width="0.8"/><path d="M1541.4,960.9 Q1545.9,1004.4 1495.1,1066.1" stroke-width="0.8"/><path d="M1541.4,960.9 Q1579.8,999.6 1573.1,1098.0" stroke-width="0.8"/><path d="M1541.4,960.9 Q1556.0,910.2 1601.3,899.5" stroke-width="0.8"/><path d="M1541.4,960.9 C1480.6,926.7 1525.7,834.0 1471.4,716.9 S1509.6,687.5 1509.6,687.5" stroke-width="1.15"/></g><g fill="#b08a4a" opacity="0.22"><circle cx="169.0" cy="128.6" r="3.2"/><circle cx="205.2" cy="263.8" r="1.1"/><circle cx="256.0" cy="155.0" r="0.8"/><circle cx="386.6" cy="150.6" r="3.7"/><circle cx="656.2" cy="84.1" r="2.8"/><circle cx="578.8" cy="-19.5" r="0.8"/><circle cx="728.4" cy="21.8" r="0.9"/><circle cx="1006.3" cy="141.2" r="3.5"/><circle cx="1077.7" cy="99.8" r="1.0"/><circle cx="1246.4" cy="115.4" r="3.3"/><circle cx="1401.9" cy="110.1" r="3.5"/><circle cx="1431.0" cy="188.9" r="0.9"/><circle cx="213.6" cy="438.2" r="2.4"/><circle cx="247.2" cy="496.3" r="0.9"/><circle cx="326.1" cy="358.3" r="3.2"/><circle cx="295.5" cy="325.0" r="1.0"/><circle cx="341.3" cy="481.6" r="1.1"/><circle cx="658.5" cy="387.6" r="2.2"/><circle cx="658.9" cy="474.0" r="1.3"/><circle cx="721.5" cy="277.3" r="1.0"/><circle cx="659.1" cy="311.0" r="1.3"/><circle cx="851.9" cy="480.0" r="2.8"/><circle cx="913.8" cy="486.1" r="1.1"/><circle cx="935.3" cy="453.7" r="1.5"/><circle cx="906.0" cy="585.4" r="1.4"/><circle cx="826.3" cy="351.9" r="1.0"/><circle cx="1280.1" cy="381.6" r="3.1"/><circle cx="1528.5" cy="419.0" r="3.1"/><circle cx="1445.4" cy="372.2" r="1.2"/><circle cx="1625.1" cy="460.4" r="1.4"/><circle cx="1603.9" cy="432.2" r="0.8"/><circle cx="68.6" cy="729.8" r="2.6"/><circle cx="49.9" cy="811.5" r="1.3"/><circle cx="49.4" cy="722.6" r="0.9"/><circle cx="428.6" cy="739.8" r="3.0"/><circle cx="472.1" cy="676.9" r="0.8"/><circle cx="650.8" cy="691.7" r="2.3"/><circle cx="689.9" cy="684.6" r="1.5"/><circle cx="914.9" cy="737.2" r="3.1"/><circle cx="995.4" cy="717.1" r="1.2"/><circle cx="951.7" cy="706.9" r="1.0"/><circle cx="991.9" cy="825.6" r="1.1"/><circle cx="1226.9" cy="719.8" r="2.4"/><circle cx="1281.9" cy="798.8" r="1.2"/><circle cx="1236.7" cy="778.0" r="1.3"/><circle cx="1189.6" cy="618.3" r="1.6"/><circle cx="1297.1" cy="660.6" r="1.0"/><circle cx="1518.8" cy="686.3" r="3.4"/><circle cx="1475.6" cy="646.3" r="1.0"/><circle cx="1442.3" cy="676.4" r="1.1"/><circle cx="206.9" cy="1011.0" r="3.0"/><circle cx="225.0" cy="930.8" r="1.2"/><circle cx="312.1" cy="1022.2" r="1.6"/><circle cx="397.7" cy="956.0" r="2.5"/><circle cx="435.0" cy="882.2" r="1.5"/><circle cx="690.2" cy="938.7" r="3.8"/><circle cx="683.9" cy="983.0" r="1.6"/><circle cx="941.3" cy="971.1" r="2.7"/><circle cx="1016.3" cy="863.4" r="0.8"/><circle cx="1019.9" cy="991.1" r="1.1"/><circle cx="1169.9" cy="978.1" r="3.2"/><circle cx="1198.6" cy="865.6" r="1.4"/><circle cx="1541.4" cy="960.9" r="3.6"/><circle cx="1481.7" cy="875.9" r="0.9"/></g></svg>